<?xml version="1.0" encoding="utf-8"?>
<!-- Generator: Adobe Illustrator 23.1.1, SVG Export Plug-In . SVG Version: 6.00 Build 0)  -->
<svg version="1.1" id="Layer_1" xmlns="http://www.w3.org/2000/svg" xmlns:xlink="http://www.w3.org/1999/xlink" x="0px" y="0px"
	 viewBox="0 0 671.5 199.6" style="enable-background:new 0 0 671.5 199.6;" xml:space="preserve">
<style type="text/css">
	.st0{fill:none;}
	.st1{fill:#FFFFFF;}
</style>
<rect class="st0" width="671.5" height="199.6"/>
<g>
	<g>
		<g>
			<path class="st1" d="M107.9,14.4C72.7,14.4,44,43.1,44,78.3c0,35.2,28.7,63.9,63.9,63.9c35.2,0,63.9-28.7,63.9-63.9
				C171.8,43.1,143.2,14.4,107.9,14.4z M135,125.1l-3.7-6.4l-2.1,1.2l3.7,6.4c-6.7,3.5-14.1,5.5-22,6v-11.9h-5.7v11.9
				c-7.9-0.4-15.4-2.5-22-6l3.7-6.4l-2.1-1.2l-3.7,6.4c-7.2-4.2-13.4-10-18-17l7.1-4.1l-1.2-2.1l-7.1,4.1c-4-6.7-6.7-14.3-7.4-22.5
				h14.1v-5.7H53.9c0.1-8.5,2.1-16.5,5.7-23.6l9.1,5.3l1.2-2.1L60.7,52c4.4-7.8,10.6-14.4,18.1-19.2l5.7,9.9l2.1-1.2L81,31.5
				c7.2-4.1,15.4-6.7,24.1-7.1V73c-3.1,1.2-5.3,4.1-5.3,7.6c0,4.5,3.7,8.2,8.2,8.2c4.5,0,8.2-3.7,8.2-8.2c0-1.2-0.3-2.3-0.7-3.4
				l33.9-33.9c2.2,2.6,4.2,5.5,5.9,8.6l-9.2,5.3l1.2,2.1l9.1-5.3c3.6,7.1,5.6,15.1,5.7,23.6h-14.4v5.7h14.1
				c-0.8,8.2-3.4,15.8-7.4,22.5l-7.1-4.1l-1.2,2.1l7.1,4.1C148.4,115.1,142.2,120.9,135,125.1z"/>
		</g>
	</g>
	<g>
		<path d="M168.2,141.2"/>
	</g>
	<path class="st1" d="M55.3,12.2L48,5C28.5,22.2,16.8,47.2,16.8,74.3c0,48.1,37.1,87.7,84.2,91.8v12.8l-46.2,4c-4,0-7.3,2.6-7.3,5.9
		c0,3.2,3.3,5.9,7.3,5.9h105.3c4.1,0,7.3-2.6,7.3-5.9c0-3.2-3.3-5.9-7.3-5.9l-46.2-4v-12.5c25.2-1.3,48.3-12.8,64.5-31.2l-7.3-7.3
		c-1.2,1.4-2.4,2.7-3.7,3.9l-9.6-9.6l-6.5,6.5l9.2,9.2c-14.3,11.5-32.3,18.2-51.5,18.2c-45.2,0-82.1-36.7-82.1-82
		c0-18.4,6.1-35.8,16.8-49.8l12,12l6.5-6.5L50,17.6"/>
</g>
<g>
	<g>
		<path class="st1" d="M198.3,23.3h53.4v10.6h-20.6v62.6h-12V33.9h-20.8V23.3z"/>
		<path class="st1" d="M260.1,21.7h11.6V34h-11.6V21.7z M260.1,43.1h11.6v53.4h-11.6V43.1z"/>
		<path class="st1" d="M285.9,96.5V43.1h11.5v3.3c0,0,7.6-4.5,13.9-4.5c6.5,0,10.6,1.6,13.6,5.2c0,0,9.7-5.2,18.4-5.2
			c14.5,0,18.5,7.8,18.5,26v28.6h-11.5V68.2c0-10.7-1.3-15.9-9.1-15.9c-5.9,0-12.2,2.9-12.2,2.9c0.4,1.1,0.9,8.4,0.9,13.7v27.7
			h-11.5V69c0-11.9-1.2-16.8-9.2-16.8c-6,0-11.5,2.8-11.5,2.8v41.4H285.9z"/>
		<path class="st1" d="M416.4,86.5l0.2,8.7c0,0-12.2,2.5-21.6,2.5c-16,0-22.2-8.5-22.2-27.3c0-19.5,8.4-28.4,23.2-28.4
			c15,0,22.4,7.8,22.4,24.5l-0.7,8.3h-33.1c0.1,8.5,3.3,12.8,12.2,12.8C405.2,87.5,416.4,86.5,416.4,86.5z M407,65.7
			c0-10.7-3.2-14.2-11-14.2c-7.9,0-11.4,4-11.5,14.2H407z"/>
		<path class="st1" d="M415.4,23.3h53.4v10.6h-20.6v62.6h-12V33.9h-20.8V23.3z"/>
		<path class="st1" d="M470.1,43.1h11.5v6.4c0,0,9.1-5.9,18.2-7.6v11.6c-9.7,1.9-18.1,5.7-18.1,5.7v37.3h-11.6V43.1z"/>
		<path class="st1" d="M548.1,83.9c0.2,3.2,1.6,4.5,4.7,4.9l-0.3,8.9c-6.5,0-10.3-0.9-14.2-4c0,0-8.5,4-17.2,4
			c-10.6,0-15.9-5.9-15.9-17c0-11.3,6.2-15.2,17.6-16.1l13.8-1.2v-3.8c0-5.9-2.6-7.7-7.8-7.7c-7.2,0-20.1,1.1-20.1,1.1l-0.4-8.2
			c0,0,11.6-2.8,21.5-2.8c13,0,18.4,5.4,18.4,17.6V83.9z M524.2,72.8c-4.9,0.4-7.4,2.8-7.4,7.6c0,4.8,2,7.8,6.5,7.8
			c6.1,0,13.2-2.3,13.2-2.3V71.6L524.2,72.8z"/>
		<path class="st1" d="M598.8,43.9l-0.4,9.2c0,0-8.4-0.9-12.5-0.9c-11.1,0-13.7,4.5-13.7,16.8c0,13.7,2.2,18.3,13.8,18.3
			c4.1,0,12.5-0.9,12.5-0.9l0.3,9.3c0,0-10.8,1.9-16.2,1.9c-16.4,0-22.1-8.1-22.1-28.6c0-19.1,6.4-27.1,22.3-27.1
			C588.4,41.9,598.8,43.9,598.8,43.9z"/>
		<path class="st1" d="M610,96.5V20.9h11.6v43.7l6.6-0.6l12.6-20.8h13l-15.4,25l16.2,28.4h-13.1l-13-22.5l-6.9,0.7v21.8H610z"/>
	</g>
	<g>
		<path class="st1" d="M220.1,139.7c0,0-6.8-0.8-9.6-0.8c-4.1,0-6.2,1.5-6.2,4.3c0,3.1,1.7,3.8,7.4,5.4c7,1.9,9.5,3.8,9.5,9.5
			c0,7.3-4.6,10.4-11.1,10.4c-4.3,0-10.9-1.3-10.9-1.3l0.5-4.3c0,0,6.6,0.9,10,0.9c4.1,0,6-1.8,6-5.3c0-2.8-1.5-3.8-6.6-5
			c-7.2-1.8-10.3-4-10.3-9.8c0-6.7,4.4-9.5,11.1-9.5c4.2,0,10.5,1.2,10.5,1.2L220.1,139.7z"/>
		<path class="st1" d="M232.5,148.2v10.7c0,3.6,0.1,4.9,2.7,4.9c1.4,0,4-0.1,4-0.1l0.2,4.2c0,0-3.3,0.6-5,0.6c-5.5,0-7.2-2-7.2-9
			v-11.3h-3.1v-4.5h3.1v-7h5.2v7h6.7v4.5H232.5z"/>
		<path class="st1" d="M261.5,162.2c0.1,1.5,0.7,2,2.1,2.2l-0.1,4c-3,0-4.7-0.4-6.5-1.8c0,0-3.9,1.8-7.8,1.8c-4.8,0-7.2-2.7-7.2-7.7
			c0-5.2,2.8-6.9,8-7.3l6.3-0.5v-1.7c0-2.7-1.2-3.5-3.5-3.5c-3.3,0-9.1,0.5-9.1,0.5l-0.2-3.7c0,0,5.3-1.3,9.8-1.3
			c5.9,0,8.4,2.5,8.4,8V162.2z M250.7,157.2c-2.2,0.2-3.4,1.3-3.4,3.4c0,2.2,0.9,3.5,3,3.5c2.8,0,6-1.1,6-1.1v-6.5L250.7,157.2z"/>
		<path class="st1" d="M270.9,143.7l5.2,19.8h1.3l5.2-19.8h5.2l-9.2,34.7h-5.2l2.9-10.4H272l-6.4-24.3H270.9z"/>
		<path class="st1" d="M301.7,151.5c0-11.1,3.2-17.3,13.6-17.3c10.4,0,13.5,6.2,13.5,17.3c0,11.3-3.1,17-13.5,17
			C304.8,168.5,301.7,162.7,301.7,151.5z M323.2,151.5c0-8.3-1.5-12.6-7.9-12.6c-6.4,0-8,4.4-8,12.6c0,8.3,1.5,12.3,8,12.3
			C321.7,163.8,323.2,160,323.2,151.5z"/>
		<path class="st1" d="M334.4,168v-24.3h5.2v1.5c0,0,3.5-2,6.7-2c6.8,0,8.4,3.8,8.4,11.8v13h-5.2v-12.9c0-4.9-0.6-7.2-4.3-7.2
			c-2.8,0-5.5,1.3-5.5,1.3V168H334.4z"/>
		<path class="st1" d="M369,134.7h24.3v4.8h-9.4V168h-5.4v-28.5H369V134.7z"/>
		<path class="st1" d="M397.2,134h5.3v5.6h-5.3V134z M397.2,143.7h5.3V168h-5.3V143.7z"/>
		<path class="st1" d="M408.9,168v-24.3h5.2v1.5c0,0,3.5-2,6.3-2c3,0,4.8,0.7,6.2,2.4c0,0,4.4-2.4,8.4-2.4c6.6,0,8.4,3.5,8.4,11.8
			v13h-5.2v-12.9c0-4.9-0.6-7.2-4.1-7.2c-2.7,0-5.5,1.3-5.5,1.3c0.2,0.5,0.4,3.8,0.4,6.2V168h-5.2v-12.5c0-5.4-0.5-7.6-4.2-7.6
			c-2.7,0-5.2,1.3-5.2,1.3V168H408.9z"/>
		<path class="st1" d="M468.2,163.5l0.1,3.9c0,0-5.5,1.1-9.8,1.1c-7.3,0-10.1-3.9-10.1-12.4c0-8.9,3.8-12.9,10.5-12.9
			c6.8,0,10.2,3.5,10.2,11.1l-0.3,3.8h-15.1c0,3.9,1.5,5.8,5.5,5.8C463.1,163.9,468.2,163.5,468.2,163.5z M464,154
			c0-4.9-1.5-6.5-5-6.5c-3.6,0-5.2,1.8-5.2,6.5H464z"/>
	</g>
</g>
</svg>
